<?xml version="1.0"?>
<svg xmlns="http://www.w3.org/2000/svg" height="512px" viewBox="0 0 64 64" width="512px"><g><path d="m61 52h-1v-31a3 3 0 0 0 -3-3h-4v-13a3 3 0 0 0 -3-3h-36a3 3 0 0 0 -3 3v13h-4a3 3 0 0 0 -3 3v31h-1a1 1 0 0 0 -1 1v4a5.006 5.006 0 0 0 5 5h50a5.006 5.006 0 0 0 5-5v-4a1 1 0 0 0 -1-1zm-48-40h38v23a1 1 0 0 1 -1 1h-36a1 1 0 0 1 -1-1zm1-8h36a1 1 0 0 1 1 1v5h-38v-5a1 1 0 0 1 1-1zm-8 17a1 1 0 0 1 1-1h4v15a3 3 0 0 0 3 3h36a3 3 0 0 0 3-3v-15h4a1 1 0 0 1 1 1v31h-16a1 1 0 0 0 -1 1v2a1 1 0 0 1 -1 1h-16a1 1 0 0 1 -1-1v-2a1 1 0 0 0 -1-1h-16zm54 36a3 3 0 0 1 -3 3h-50a3 3 0 0 1 -3-3v-3h17v1a3 3 0 0 0 3 3h16a3 3 0 0 0 3-3v-1h17z" data-original="#000000" class="active-path" data-old_color="#000000" fill="#161CA3"/><path d="m15 6h2v2h-2z" data-original="#000000" class="active-path" data-old_color="#000000" fill="#161CA3"/><path d="m19 6h2v2h-2z" data-original="#000000" class="active-path" data-old_color="#000000" fill="#161CA3"/><path d="m23 6h2v2h-2z" data-original="#000000" class="active-path" data-old_color="#000000" fill="#161CA3"/><path d="m47 6h2v2h-2z" data-original="#000000" class="active-path" data-old_color="#000000" fill="#161CA3"/><path d="m27.293 32.707 1.414-1.414-7.293-7.293 7.293-7.293-1.414-1.414-8 8a1 1 0 0 0 0 1.414z" data-original="#000000" class="active-path" data-old_color="#000000" fill="#161CA3"/><path d="m36.707 32.707 8-8a1 1 0 0 0 0-1.414l-8-8-1.414 1.414 7.293 7.293-7.293 7.293z" data-original="#000000" class="active-path" data-old_color="#000000" fill="#161CA3"/><path d="m31 16h2v16h-2z" data-original="#000000" class="active-path" data-old_color="#000000" fill="#161CA3"/><path d="m13 40h2v2h-2z" data-original="#000000" class="active-path" data-old_color="#000000" fill="#161CA3"/><path d="m17 40h2v2h-2z" data-original="#000000" class="active-path" data-old_color="#000000" fill="#161CA3"/><path d="m21 40h2v2h-2z" data-original="#000000" class="active-path" data-old_color="#000000" fill="#161CA3"/><path d="m25 40h2v2h-2z" data-original="#000000" class="active-path" data-old_color="#000000" fill="#161CA3"/><path d="m29 40h2v2h-2z" data-original="#000000" class="active-path" data-old_color="#000000" fill="#161CA3"/><path d="m33 40h2v2h-2z" data-original="#000000" class="active-path" data-old_color="#000000" fill="#161CA3"/><path d="m37 40h2v2h-2z" data-original="#000000" class="active-path" data-old_color="#000000" fill="#161CA3"/><path d="m41 40h2v2h-2z" data-original="#000000" class="active-path" data-old_color="#000000" fill="#161CA3"/><path d="m45 40h2v2h-2z" data-original="#000000" class="active-path" data-old_color="#000000" fill="#161CA3"/><path d="m49 40h2v2h-2z" data-original="#000000" class="active-path" data-old_color="#000000" fill="#161CA3"/><path d="m13 48h2v2h-2z" data-original="#000000" class="active-path" data-old_color="#000000" fill="#161CA3"/><path d="m17 48h2v2h-2z" data-original="#000000" class="active-path" data-old_color="#000000" fill="#161CA3"/><path d="m21 48h2v2h-2z" data-original="#000000" class="active-path" data-old_color="#000000" fill="#161CA3"/><path d="m25 48h2v2h-2z" data-original="#000000" class="active-path" data-old_color="#000000" fill="#161CA3"/><path d="m29 48h2v2h-2z" data-original="#000000" class="active-path" data-old_color="#000000" fill="#161CA3"/><path d="m33 48h2v2h-2z" data-original="#000000" class="active-path" data-old_color="#000000" fill="#161CA3"/><path d="m37 48h2v2h-2z" data-original="#000000" class="active-path" data-old_color="#000000" fill="#161CA3"/><path d="m41 48h2v2h-2z" data-original="#000000" class="active-path" data-old_color="#000000" fill="#161CA3"/><path d="m45 48h2v2h-2z" data-original="#000000" class="active-path" data-old_color="#000000" fill="#161CA3"/><path d="m49 48h2v2h-2z" data-original="#000000" class="active-path" data-old_color="#000000" fill="#161CA3"/><path d="m13 44h2v2h-2z" data-original="#000000" class="active-path" data-old_color="#000000" fill="#161CA3"/><path d="m17 44h2v2h-2z" data-original="#000000" class="active-path" data-old_color="#000000" fill="#161CA3"/><path d="m21 44h2v2h-2z" data-original="#000000" class="active-path" data-old_color="#000000" fill="#161CA3"/><path d="m25 44h2v2h-2z" data-original="#000000" class="active-path" data-old_color="#000000" fill="#161CA3"/><path d="m29 44h2v2h-2z" data-original="#000000" class="active-path" data-old_color="#000000" fill="#161CA3"/><path d="m33 44h2v2h-2z" data-original="#000000" class="active-path" data-old_color="#000000" fill="#161CA3"/><path d="m37 44h2v2h-2z" data-original="#000000" class="active-path" data-old_color="#000000" fill="#161CA3"/><path d="m41 44h2v2h-2z" data-original="#000000" class="active-path" data-old_color="#000000" fill="#161CA3"/><path d="m45 44h2v2h-2z" data-original="#000000" class="active-path" data-old_color="#000000" fill="#161CA3"/><path d="m49 44h2v2h-2z" data-original="#000000" class="active-path" data-old_color="#000000" fill="#161CA3"/></g> </svg>
