<?xml version="1.0"?>
<svg xmlns="http://www.w3.org/2000/svg" height="512px" viewBox="0 0 480 480.0613" width="512px" class=""><g><path d="m392.03125 272.0625c-.046875-11.898438-1.488281-23.746094-4.304688-35.304688 57.984376-13.761718 97.085938-67.988281 91.824219-127.351562-5.261719-59.359375-53.289062-105.867188-112.789062-109.214844-59.5-3.351562-112.441407 37.472656-124.332031 95.871094h-32.480469c-.4375-1.105469-.898438-2.210938-1.390625-3.3125l26.953125-26.953125c3.121093-3.125 3.121093-8.1875 0-11.3125l-33.882813-33.917969c-3.121094-3.125-8.1875-3.125-11.308594 0l-26.976562 26.949219c-1.105469-.484375-2.210938-.957031-3.3125-1.390625v-38.0625c0-4.417969-3.582031-8-8-8h-48c-4.417969 0-8 3.582031-8 8v38.0625c-1.105469.433594-2.207031.90625-3.3125 1.390625l-26.953125-26.949219c-3.121094-3.125-8.1875-3.125-11.3125 0l-33.917969 33.894532c-3.125 3.125-3.125 8.1875 0 11.3125l26.953125 26.953124c-.488281 1.101563-.960937 2.207032-1.394531 3.3125h-38.0625c-4.417969 0-8 3.578126-8 8v48c0 4.417969 3.582031 8 8 8h38.0625c.433594 1.101563.90625 2.207032 1.394531 3.308594l-26.953125 26.976563c-3.125 3.125-3.125 8.1875 0 11.3125l33.917969 33.921875c3.125 3.121094 8.191406 3.121094 11.3125 0l26.953125-26.953125c1.105469.488281 2.207031.960937 3.3125 1.390625v13.769531c-22.640625 66.820313 3.914062 140.421875 64 177.398437v30.898438c-13.253906 0-24 10.742188-24 24 0 13.253906 10.746094 24 24 24h160c13.253906 0 24-10.746094 24-24 0-13.257812-10.746094-24-24-24v-30.898438c44.644531-27.75 71.851562-76.535156 72-129.101562zm-72-152c0-22.09375 17.90625-40 40-40 22.089844 0 40 17.90625 40 40 0 22.089844-17.910156 40-40 40-22.082031-.027344-39.972656-17.921875-40-40zm40 56c24.183594.078125 45.707031-15.328125 53.425781-38.246094 7.722657-22.917968-.089843-48.207031-19.390625-62.78125-19.300781-14.570312-45.761718-15.15625-65.6875-1.449218-19.929687 13.703124-28.847656 38.621093-22.148437 61.859374-5.734375-2.808593-11.644531-5.246093-17.6875-7.304687-.328125-2.679687-.5-5.378906-.511719-8.078125-.054688-38.65625 30.429688-70.457031 69.054688-72.039062 38.621093-1.582032 71.601562 27.621093 74.710937 66.152343s-24.765625 72.640625-63.140625 77.269531c-3.347656-5.394531-7.03125-10.570312-11.027344-15.503906.800782.03125 1.601563.121094 2.402344.121094zm0-160c52.929688-.027344 97.425781 39.722656 103.351562 92.320312 5.921876 52.59375-28.621093 101.246094-80.230468 112.992188-1.820313-5.125-3.917969-10.144531-6.28125-15.042969 45.519531-8.90625 76.296875-51.628906 70.332031-97.625-5.964844-46-46.625-79.457031-92.910156-76.457031-46.285157 3-82.285157 41.429688-82.261719 87.8125 0 1.191406.113281 2.328125.160156 3.496094-5.335937-1.171875-10.730468-2.050782-16.160156-2.632813 0-.289062 0-.570312 0-.863281.066406-57.410156 46.589844-103.933594 104-104zm-253.550781 180.703125c-4.039063-1.3125-7.960938-2.960937-11.722657-4.929687-3.097656-1.605469-6.878906-1.019532-9.34375 1.449218l-25.304687 25.304688-22.605469-22.609375 25.304688-25.304688c2.464844-2.464843 3.050781-6.246093 1.445312-9.34375-1.96875-3.761719-3.617187-7.679687-4.925781-11.71875-1.066406-3.308593-4.140625-5.550781-7.617187-5.550781h-35.679688v-32h35.679688c3.476562 0 6.550781-2.246094 7.617187-5.554688 1.308594-4.035156 2.957031-7.957031 4.925781-11.71875 1.605469-3.097656 1.019532-6.878906-1.445312-9.34375l-25.304688-25.304687 22.605469-22.605469 25.304687 25.300782c2.464844 2.46875 6.246094 3.054687 9.34375 1.449218 3.761719-1.96875 7.683594-3.617187 11.722657-4.929687 3.304687-1.0625 5.550781-4.140625 5.550781-7.613281v-35.679688h32v35.679688c0 3.472656 2.242188 6.550781 5.550781 7.613281 4.039063 1.3125 7.960938 2.960937 11.71875 4.929687 3.097657 1.605469 6.878907 1.019532 9.347657-1.449218l25.300781-25.300782 22.609375 22.605469-25.304688 25.304687c-2.46875 2.464844-3.054687 6.246094-1.445312 9.34375 1.964844 3.761719 3.613281 7.683594 4.925781 11.71875 1.0625 3.308594 4.140625 5.554688 7.617187 5.554688h36.085938c-.175781 2.65625-.40625 5.292969-.40625 8-19.277344.015625-38.375 3.71875-56.257812 10.917969.050781-.984375.257812-1.925781.257812-2.917969.003906-29.511719-22.894531-53.964844-52.339844-55.890625-29.449218-1.929687-55.339844 19.328125-59.183594 48.585937-3.84375 29.261719 15.679688 56.480469 44.625 62.222657-3.390624 4.632812-6.519531 9.457031-9.367187 14.441406-.40625-.261719-.835937-.480469-1.285156-.65625zm23.070312-28.800781c-.511719 0-1 .074218-1.519531.074218-22.09375 0-40-17.910156-40-40 0-22.09375 17.90625-40 40-40 22.089844 0 40 17.90625 40 40-.035156 3.796876-.625 7.570313-1.753906 11.199219-13.640625 7.644531-26.027344 17.34375-36.726563 28.75zm198.480469 288.097656c0 4.417969-3.582031 8-8 8h-160c-4.417969 0-8-3.582031-8-8s3.582031-8 8-8h160c4.417969 0 8 3.582031 8 8zm-104-184h-17.871094l33.871094-56.449219 33.871094 56.449219h-17.871094c-4.417969 0-8 3.582031-8 8v152h-16v-152c0-4.417969-3.582031-8-8-8zm84 117.65625c-2.472656 1.425781-3.996094 4.0625-4 6.917969v35.425781h-40v-144h24c2.882812 0 5.542969-1.554688 6.960938-4.0625 1.417968-2.507812 1.378906-5.585938-.105469-8.058594l-48-80c-1.550781-2.261718-4.113281-3.613281-6.855469-3.613281s-5.308594 1.351563-6.855469 3.613281l-48 80c-1.484375 2.472656-1.527343 5.550782-.105469 8.058594 1.417969 2.507812 4.078126 4.0625 6.960938 4.0625h24v144h-40v-35.425781c-.003906-2.855469-1.527344-5.492188-4-6.917969-53.308594-30.777344-79.296875-93.523438-63.367188-152.980469 15.933594-59.457031 69.8125-100.800781 131.367188-100.800781s115.433594 41.34375 131.367188 100.800781c15.929687 59.457031-10.058594 122.203125-63.367188 152.980469zm0 0" data-original="#000000" class="active-path" data-old_color="#000000" fill="#6DCB98"/><path d="m274.542969 157.117188-4.609375 15.320312c39.753906 11.90625 68.613281 46.324219 73.40625 87.546875 4.792968 41.21875-15.398438 81.339844-51.355469 102.054687l-15.953125 9.222657c-2.476562 1.429687-4 4.070312-4 6.925781v29.875h16v-25.257812l12-6.925782c41.472656-23.914062 64.753906-70.203125 59.21875-117.757812-5.535156-47.550782-38.824219-87.257813-84.683594-101.003906zm0 0" data-original="#000000" class="active-path" data-old_color="#000000" fill="#6DCB98"/><path d="m240.03125 168.0625c4.953125 0 9.898438.351562 14.800781 1.046875l2.253907-15.839844c-5.648438-.800781-11.347657-1.207031-17.054688-1.207031zm0 0" data-original="#000000" class="active-path" data-old_color="#000000" fill="#6DCB98"/><path d="m24.03125 264.0625h48v16h-48zm0 0" data-original="#000000" class="active-path" data-old_color="#000000" fill="#6DCB98"/><path d="m48.96875 373.128906 41.570312-23.996094 8 13.855469-41.570312 23.996094zm0 0" data-original="#000000" class="active-path" data-old_color="#000000" fill="#6DCB98"/><path d="m381.519531 362.988281 8-13.859375 41.570313 24-8 13.859375zm0 0" data-original="#000000" class="active-path" data-old_color="#000000" fill="#6DCB98"/><path d="m408.03125 264.0625h48v16h-48zm0 0" data-original="#000000" class="active-path" data-old_color="#000000" fill="#6DCB98"/><path d="m384.03125 120.0625c0-13.257812-10.746094-24-24-24s-24 10.742188-24 24c0 13.253906 10.746094 24 24 24s24-10.746094 24-24zm-32 0c0-4.417969 3.582031-8 8-8s8 3.582031 8 8-3.582031 8-8 8-8-3.582031-8-8zm0 0" data-original="#000000" class="active-path" data-old_color="#000000" fill="#6DCB98"/></g> </svg>
